<svg width="162" height="31" viewBox="0 0 162 31" fill="none" xmlns="http://www.w3.org/2000/svg">
<path d="M27.001 14.9996L33.7512 21.7498L27.001 28.5L20.2508 21.7498L27.001 14.9996Z" fill="#3998FF"/>
<path d="M13.4943 14.9943L20.2415 21.7415L13.4943 28.4887L6.74707 21.7415L13.4943 14.9943Z" fill="#D763FF"/>
<rect x="20.2566" y="8.25626" width="9.55476" height="9.55476" transform="rotate(45 20.2566 8.25626)" fill="#8A88FF"/>
<rect x="6.75623" y="8.25626" width="9.55476" height="9.55476" transform="rotate(45 6.75623 8.25626)" fill="#FFB800"/>
<path d="M27.0068 1.5L33.7631 8.25623L27.0068 15.0125L20.2506 8.25623L27.0068 1.5Z" fill="#8A88FF"/>
<path d="M13.506 1.5L20.2622 8.25623L13.506 15.0125L6.74975 8.25623L13.506 1.5Z" fill="#FF7979"/>
<rect x="33.7566" y="8.25018" width="9.55476" height="9.55476" transform="rotate(45 33.7566 8.25018)" fill="#19E6F3"/>
<path d="M20.2566 8.25018L27.0128 15.0064L20.2566 21.7626L13.5004 15.0064L20.2566 8.25018Z" fill="#3A36FF"/>
<path d="M53.3379 20.7H58.9379V24H49.0629V6.45H53.3379V20.7ZM67.327 24.2C65.9603 24.2 64.727 23.9083 63.627 23.325C62.5437 22.7417 61.6853 21.9083 61.052 20.825C60.4353 19.7417 60.127 18.475 60.127 17.025C60.127 15.5917 60.4437 14.3333 61.077 13.25C61.7103 12.15 62.577 11.3083 63.677 10.725C64.777 10.1417 66.0103 9.85 67.377 9.85C68.7437 9.85 69.977 10.1417 71.077 10.725C72.177 11.3083 73.0437 12.15 73.677 13.25C74.3103 14.3333 74.627 15.5917 74.627 17.025C74.627 18.4583 74.302 19.725 73.652 20.825C73.0187 21.9083 72.1437 22.7417 71.027 23.325C69.927 23.9083 68.6937 24.2 67.327 24.2ZM67.327 20.5C68.1437 20.5 68.8353 20.2 69.402 19.6C69.9853 19 70.277 18.1417 70.277 17.025C70.277 15.9083 69.9937 15.05 69.427 14.45C68.877 13.85 68.1937 13.55 67.377 13.55C66.5437 13.55 65.852 13.85 65.302 14.45C64.752 15.0333 64.477 15.8917 64.477 17.025C64.477 18.1417 64.7437 19 65.277 19.6C65.827 20.2 66.5103 20.5 67.327 20.5ZM82.195 9.85C83.1783 9.85 84.0366 10.05 84.77 10.45C85.52 10.85 86.095 11.375 86.495 12.025V10.05H90.77V23.975C90.77 25.2583 90.5116 26.4167 89.995 27.45C89.495 28.5 88.72 29.3333 87.67 29.95C86.6366 30.5667 85.345 30.875 83.795 30.875C81.7283 30.875 80.0533 30.3833 78.77 29.4C77.4866 28.4333 76.7533 27.1167 76.57 25.45H80.795C80.9283 25.9833 81.245 26.4 81.745 26.7C82.245 27.0167 82.8616 27.175 83.595 27.175C84.4783 27.175 85.1783 26.9167 85.695 26.4C86.2283 25.9 86.495 25.0917 86.495 23.975V22C86.0783 22.65 85.5033 23.1833 84.77 23.6C84.0366 24 83.1783 24.2 82.195 24.2C81.045 24.2 80.0033 23.9083 79.07 23.325C78.1366 22.725 77.395 21.8833 76.845 20.8C76.3116 19.7 76.045 18.4333 76.045 17C76.045 15.5667 76.3116 14.3083 76.845 13.225C77.395 12.1417 78.1366 11.3083 79.07 10.725C80.0033 10.1417 81.045 9.85 82.195 9.85ZM86.495 17.025C86.495 15.9583 86.195 15.1167 85.595 14.5C85.0116 13.8833 84.295 13.575 83.445 13.575C82.595 13.575 81.87 13.8833 81.27 14.5C80.6866 15.1 80.395 15.9333 80.395 17C80.395 18.0667 80.6866 18.9167 81.27 19.55C81.87 20.1667 82.595 20.475 83.445 20.475C84.295 20.475 85.0116 20.1667 85.595 19.55C86.195 18.9333 86.495 18.0917 86.495 17.025ZM100.213 24.2C98.8461 24.2 97.6127 23.9083 96.5127 23.325C95.4294 22.7417 94.5711 21.9083 93.9377 20.825C93.3211 19.7417 93.0127 18.475 93.0127 17.025C93.0127 15.5917 93.3294 14.3333 93.9627 13.25C94.5961 12.15 95.4627 11.3083 96.5627 10.725C97.6627 10.1417 98.8961 9.85 100.263 9.85C101.629 9.85 102.863 10.1417 103.963 10.725C105.063 11.3083 105.929 12.15 106.563 13.25C107.196 14.3333 107.513 15.5917 107.513 17.025C107.513 18.4583 107.188 19.725 106.538 20.825C105.904 21.9083 105.029 22.7417 103.913 23.325C102.813 23.9083 101.579 24.2 100.213 24.2ZM100.213 20.5C101.029 20.5 101.721 20.2 102.288 19.6C102.871 19 103.163 18.1417 103.163 17.025C103.163 15.9083 102.879 15.05 102.313 14.45C101.763 13.85 101.079 13.55 100.263 13.55C99.4294 13.55 98.7377 13.85 98.1877 14.45C97.6377 15.0333 97.3627 15.8917 97.3627 17.025C97.3627 18.1417 97.6294 19 98.1627 19.6C98.7127 20.2 99.3961 20.5 100.213 20.5ZM125.704 15C126.72 15.2167 127.537 15.725 128.154 16.525C128.77 17.3083 129.079 18.2083 129.079 19.225C129.079 20.6917 128.562 21.8583 127.529 22.725C126.512 23.575 125.087 24 123.254 24H115.079V6.45H122.979C124.762 6.45 126.154 6.85833 127.154 7.675C128.17 8.49167 128.679 9.6 128.679 11C128.679 12.0333 128.404 12.8917 127.854 13.575C127.32 14.2583 126.604 14.7333 125.704 15ZM119.354 13.55H122.154C122.854 13.55 123.387 13.4 123.754 13.1C124.137 12.7833 124.329 12.325 124.329 11.725C124.329 11.125 124.137 10.6667 123.754 10.35C123.387 10.0333 122.854 9.875 122.154 9.875H119.354V13.55ZM122.504 20.55C123.22 20.55 123.77 20.3917 124.154 20.075C124.554 19.7417 124.754 19.2667 124.754 18.65C124.754 18.0333 124.545 17.55 124.129 17.2C123.729 16.85 123.17 16.675 122.454 16.675H119.354V20.55H122.504ZM137.908 24.2C136.541 24.2 135.308 23.9083 134.208 23.325C133.125 22.7417 132.266 21.9083 131.633 20.825C131.016 19.7417 130.708 18.475 130.708 17.025C130.708 15.5917 131.025 14.3333 131.658 13.25C132.291 12.15 133.158 11.3083 134.258 10.725C135.358 10.1417 136.591 9.85 137.958 9.85C139.325 9.85 140.558 10.1417 141.658 10.725C142.758 11.3083 143.625 12.15 144.258 13.25C144.891 14.3333 145.208 15.5917 145.208 17.025C145.208 18.4583 144.883 19.725 144.233 20.825C143.6 21.9083 142.725 22.7417 141.608 23.325C140.508 23.9083 139.275 24.2 137.908 24.2ZM137.908 20.5C138.725 20.5 139.416 20.2 139.983 19.6C140.566 19 140.858 18.1417 140.858 17.025C140.858 15.9083 140.575 15.05 140.008 14.45C139.458 13.85 138.775 13.55 137.958 13.55C137.125 13.55 136.433 13.85 135.883 14.45C135.333 15.0333 135.058 15.8917 135.058 17.025C135.058 18.1417 135.325 19 135.858 19.6C136.408 20.2 137.091 20.5 137.908 20.5ZM155.726 24L153.051 20.125L150.801 24H146.176L150.776 16.875L146.051 10.05H150.851L153.526 13.9L155.776 10.05H160.401L155.726 17.075L160.526 24H155.726Z" fill="#EEEEEE"/>
</svg>
