<svg width="162" height="31" viewBox="0 0 162 31" fill="none" xmlns="http://www.w3.org/2000/svg">
<path d="M27.001 14.9996L33.7512 21.7498L27.001 28.5L20.2508 21.7498L27.001 14.9996Z" fill="#3998FF"/>
<path d="M13.4943 14.9943L20.2415 21.7415L13.4943 28.4887L6.74706 21.7415L13.4943 14.9943Z" fill="#D763FF"/>
<rect x="20.2566" y="8.25626" width="9.55476" height="9.55476" transform="rotate(45 20.2566 8.25626)" fill="#8A88FF"/>
<rect x="6.75623" y="8.25626" width="9.55476" height="9.55476" transform="rotate(45 6.75623 8.25626)" fill="#FFB800"/>
<path d="M27.0068 1.5L33.7631 8.25623L27.0068 15.0125L20.2506 8.25623L27.0068 1.5Z" fill="#8A88FF"/>
<path d="M13.506 1.5L20.2622 8.25623L13.506 15.0125L6.74975 8.25623L13.506 1.5Z" fill="#FF7979"/>
<rect x="33.7566" y="8.25018" width="9.55476" height="9.55476" transform="rotate(45 33.7566 8.25018)" fill="#19E6F3"/>
<path d="M20.2566 8.25018L27.0128 15.0064L20.2566 21.7626L13.5004 15.0064L20.2566 8.25018Z" fill="#3A36FF"/>
<path d="M53.3378 20.7H58.9378V24H49.0628V6.45H53.3378V20.7ZM67.3269 24.2C65.9602 24.2 64.7269 23.9083 63.6269 23.325C62.5435 22.7417 61.6852 21.9083 61.0519 20.825C60.4352 19.7417 60.1269 18.475 60.1269 17.025C60.1269 15.5917 60.4435 14.3333 61.0769 13.25C61.7102 12.15 62.5769 11.3083 63.6769 10.725C64.7769 10.1417 66.0102 9.85 67.3769 9.85C68.7435 9.85 69.9769 10.1417 71.0769 10.725C72.1769 11.3083 73.0435 12.15 73.6769 13.25C74.3102 14.3333 74.6269 15.5917 74.6269 17.025C74.6269 18.4583 74.3019 19.725 73.6519 20.825C73.0185 21.9083 72.1435 22.7417 71.0269 23.325C69.9269 23.9083 68.6935 24.2 67.3269 24.2ZM67.3269 20.5C68.1435 20.5 68.8352 20.2 69.4019 19.6C69.9852 19 70.2769 18.1417 70.2769 17.025C70.2769 15.9083 69.9935 15.05 69.4269 14.45C68.8769 13.85 68.1935 13.55 67.3769 13.55C66.5435 13.55 65.8519 13.85 65.3019 14.45C64.7519 15.0333 64.4769 15.8917 64.4769 17.025C64.4769 18.1417 64.7435 19 65.2769 19.6C65.8269 20.2 66.5102 20.5 67.3269 20.5ZM82.1948 9.85C83.1782 9.85 84.0365 10.05 84.7698 10.45C85.5198 10.85 86.0948 11.375 86.4948 12.025V10.05H90.7698V23.975C90.7698 25.2583 90.5115 26.4167 89.9948 27.45C89.4948 28.5 88.7198 29.3333 87.6698 29.95C86.6365 30.5667 85.3448 30.875 83.7948 30.875C81.7282 30.875 80.0532 30.3833 78.7698 29.4C77.4865 28.4333 76.7532 27.1167 76.5698 25.45H80.7948C80.9282 25.9833 81.2448 26.4 81.7448 26.7C82.2448 27.0167 82.8615 27.175 83.5948 27.175C84.4782 27.175 85.1782 26.9167 85.6948 26.4C86.2282 25.9 86.4948 25.0917 86.4948 23.975V22C86.0782 22.65 85.5032 23.1833 84.7698 23.6C84.0365 24 83.1782 24.2 82.1948 24.2C81.0448 24.2 80.0032 23.9083 79.0698 23.325C78.1365 22.725 77.3948 21.8833 76.8448 20.8C76.3115 19.7 76.0448 18.4333 76.0448 17C76.0448 15.5667 76.3115 14.3083 76.8448 13.225C77.3948 12.1417 78.1365 11.3083 79.0698 10.725C80.0032 10.1417 81.0448 9.85 82.1948 9.85ZM86.4948 17.025C86.4948 15.9583 86.1948 15.1167 85.5948 14.5C85.0115 13.8833 84.2948 13.575 83.4448 13.575C82.5948 13.575 81.8698 13.8833 81.2698 14.5C80.6865 15.1 80.3948 15.9333 80.3948 17C80.3948 18.0667 80.6865 18.9167 81.2698 19.55C81.8698 20.1667 82.5948 20.475 83.4448 20.475C84.2948 20.475 85.0115 20.1667 85.5948 19.55C86.1948 18.9333 86.4948 18.0917 86.4948 17.025ZM100.213 24.2C98.846 24.2 97.6126 23.9083 96.5126 23.325C95.4293 22.7417 94.571 21.9083 93.9376 20.825C93.321 19.7417 93.0126 18.475 93.0126 17.025C93.0126 15.5917 93.3293 14.3333 93.9626 13.25C94.596 12.15 95.4626 11.3083 96.5626 10.725C97.6626 10.1417 98.896 9.85 100.263 9.85C101.629 9.85 102.863 10.1417 103.963 10.725C105.063 11.3083 105.929 12.15 106.563 13.25C107.196 14.3333 107.513 15.5917 107.513 17.025C107.513 18.4583 107.188 19.725 106.538 20.825C105.904 21.9083 105.029 22.7417 103.913 23.325C102.813 23.9083 101.579 24.2 100.213 24.2ZM100.213 20.5C101.029 20.5 101.721 20.2 102.288 19.6C102.871 19 103.163 18.1417 103.163 17.025C103.163 15.9083 102.879 15.05 102.313 14.45C101.763 13.85 101.079 13.55 100.263 13.55C99.4293 13.55 98.7376 13.85 98.1876 14.45C97.6376 15.0333 97.3626 15.8917 97.3626 17.025C97.3626 18.1417 97.6293 19 98.1626 19.6C98.7126 20.2 99.396 20.5 100.213 20.5ZM125.703 15C126.72 15.2167 127.537 15.725 128.153 16.525C128.77 17.3083 129.078 18.2083 129.078 19.225C129.078 20.6917 128.562 21.8583 127.528 22.725C126.512 23.575 125.087 24 123.253 24H115.078V6.45H122.978C124.762 6.45 126.153 6.85833 127.153 7.675C128.17 8.49167 128.678 9.6 128.678 11C128.678 12.0333 128.403 12.8917 127.853 13.575C127.32 14.2583 126.603 14.7333 125.703 15ZM119.353 13.55H122.153C122.853 13.55 123.387 13.4 123.753 13.1C124.137 12.7833 124.328 12.325 124.328 11.725C124.328 11.125 124.137 10.6667 123.753 10.35C123.387 10.0333 122.853 9.875 122.153 9.875H119.353V13.55ZM122.503 20.55C123.22 20.55 123.77 20.3917 124.153 20.075C124.553 19.7417 124.753 19.2667 124.753 18.65C124.753 18.0333 124.545 17.55 124.128 17.2C123.728 16.85 123.17 16.675 122.453 16.675H119.353V20.55H122.503ZM137.908 24.2C136.541 24.2 135.308 23.9083 134.208 23.325C133.125 22.7417 132.266 21.9083 131.633 20.825C131.016 19.7417 130.708 18.475 130.708 17.025C130.708 15.5917 131.025 14.3333 131.658 13.25C132.291 12.15 133.158 11.3083 134.258 10.725C135.358 10.1417 136.591 9.85 137.958 9.85C139.325 9.85 140.558 10.1417 141.658 10.725C142.758 11.3083 143.625 12.15 144.258 13.25C144.891 14.3333 145.208 15.5917 145.208 17.025C145.208 18.4583 144.883 19.725 144.233 20.825C143.6 21.9083 142.725 22.7417 141.608 23.325C140.508 23.9083 139.275 24.2 137.908 24.2ZM137.908 20.5C138.725 20.5 139.416 20.2 139.983 19.6C140.566 19 140.858 18.1417 140.858 17.025C140.858 15.9083 140.575 15.05 140.008 14.45C139.458 13.85 138.775 13.55 137.958 13.55C137.125 13.55 136.433 13.85 135.883 14.45C135.333 15.0333 135.058 15.8917 135.058 17.025C135.058 18.1417 135.325 19 135.858 19.6C136.408 20.2 137.091 20.5 137.908 20.5ZM155.726 24L153.051 20.125L150.801 24H146.176L150.776 16.875L146.051 10.05H150.851L153.526 13.9L155.776 10.05H160.401L155.726 17.075L160.526 24H155.726Z" fill="black"/>
</svg>
